<svg width="245" height="73" viewBox="0 0 245 73" fill="none" xmlns="http://www.w3.org/2000/svg">
<path d="M24.032 69L0.0319998 45H24.032V37H8.032V0.967999L32.032 24.968V45L48.032 61V69H24.032ZM56.032 21V8.968H64.032V21H56.032ZM72.032 69L48.032 45H56.032V29H64.032V45H72.032V0.967999L96.032 24.968V69H72.032ZM108 37L104.032 32.968V0.967999L112.032 8.968V32.968L108 37ZM124 37L120.032 32.968V0.967999L128.032 8.968V32.968L124 37ZM128.032 69L104.032 45H112.032L116 40.968L120.032 45H128.032L136.032 37V0.967999L160.032 24.968V61L152.032 69H144.032L140 64.968L136.032 69H128.032ZM168.032 21V8.968H176.032V21H168.032ZM184.032 69L160.032 45H168.032V29H176.032V45H184.032V0.967999L208.032 24.968V69H184.032ZM232.032 69L208.032 45H216.032V0.967999L240.032 24.968V69H232.032Z" fill="url(#paint0_linear_69_40)"/>
<defs>
<linearGradient id="paint0_linear_69_40" x1="245" y1="5.75445" x2="210.374" y2="126.758" gradientUnits="userSpaceOnUse">
<stop stop-color="#5A00CF"/>
<stop offset="1" stop-color="#00FFD9"/>
</linearGradient>
</defs>
</svg>
